<svg xmlns="http://www.w3.org/2000/svg" viewBox="0 0 1600 900">
  <defs>
    <linearGradient id="bg" x1="0" x2="1">
      <stop offset="0" stop-color="#eef7f2"/>
      <stop offset="1" stop-color="#f7fbff"/>
    </linearGradient>
  </defs>
  <rect width="1600" height="900" fill="url(#bg)"/>
  <g transform="translate(80,80)">
    <rect x="0" y="0" width="1440" height="740" rx="18" fill="#ffffff"/>
    <g transform="translate(40,40)">
      <rect x="0" y="0" width="840" height="560" rx="12" fill="#dff0ee"/>
      <rect x="900" y="0" width="440" height="240" rx="12" fill="#e9f3fb"/>
      <rect x="900" y="270" width="440" height="220" rx="12" fill="#f0f7ef"/>
    </g>
    <g transform="translate(60,640)">
      <rect x="0" y="0" width="1260" height="60" rx="8" fill="#ffffff" opacity="0.8"/>
    </g>
  </g>
  <g transform="translate(220,220)">
    <rect x="0" y="0" width="720" height="440" rx="8" fill="#f8fafc"/>
    <g transform="translate(24,24)">
      <rect x="0" y="0" width="240" height="160" rx="10" fill="#e6eef6"/>
      <rect x="270" y="0" width="360" height="160" rx="10" fill="#e6f0ea"/>
      <rect x="0" y="190" width="630" height="200" rx="10" fill="#eef8f5"/>
    </g>
  </g>
  <g transform="translate(1200,680)">
    <rect x="0" y="0" width="320" height="80" rx="12" fill="#ffffff" opacity="0.95"/>
    <text x="160" y="50" text-anchor="middle" font-family="Inter, Arial, sans-serif" font-size="28" font-weight="700" fill="#1f6f61">AFA Hearing</text>
  </g>
</svg>